<?xml version="1.0" ?><svg height="128" id="svg6449" version="1.1" viewBox="0 0 33.866666 33.866668" width="128" xmlns="http://www.w3.org/2000/svg" xmlns:cc="http://creativecommons.org/ns#" xmlns:dc="http://purl.org/dc/elements/1.1/" xmlns:inkscape="http://www.inkscape.org/namespaces/inkscape" xmlns:rdf="http://www.w3.org/1999/02/22-rdf-syntax-ns#" xmlns:sodipodi="http://sodipodi.sourceforge.net/DTD/sodipodi-0.dtd" xmlns:svg="http://www.w3.org/2000/svg"><defs id="defs6443"><clipPath clipPathUnits="userSpaceOnUse" id="clipPath5143"><ellipse cx="209.94763" cy="1573.1123" id="ellipse5145" rx="55.764446" ry="55.766594" style="display:inline;opacity:0.43500001;fill:#ffaaaa;fill-rule:evenodd;stroke:#333333;stroke-width:4.21448183;stroke-linecap:round;stroke-linejoin:round;stroke-miterlimit:4;stroke-dasharray:none;stroke-dashoffset:6.5999999;stroke-opacity:1"/></clipPath><clipPath clipPathUnits="userSpaceOnUse" id="clipPath11046"><ellipse cx="209.94763" cy="1380.6261" id="ellipse11048" rx="55.76445" ry="55.766594" style="display:inline;opacity:0.47600002;fill:#ffaaaa;fill-rule:evenodd;stroke:#333333;stroke-width:4.21448183;stroke-linecap:round;stroke-linejoin:round;stroke-miterlimit:4;stroke-dasharray:none;stroke-dashoffset:6.5999999;stroke-opacity:1"/></clipPath><clipPath clipPathUnits="userSpaceOnUse" id="clipPath8754"><ellipse cx="205.48343" cy="1298.3982" id="ellipse8756" rx="78.18396" ry="83.010139" style="display:inline;opacity:0.419;fill:#ffaaaa;fill-opacity:1;fill-rule:evenodd;stroke:#333333;stroke-width:4.21448183;stroke-linecap:round;stroke-linejoin:round;stroke-miterlimit:4;stroke-dasharray:none;stroke-dashoffset:6.5999999;stroke-opacity:1"/></clipPath><clipPath clipPathUnits="userSpaceOnUse" id="clipPath5060"><ellipse cx="68.499527" cy="1656.6876" id="ellipse5062" rx="71.409416" ry="71.223892" style="display:inline;opacity:0.45199998;fill:#ffe680;fill-rule:evenodd;stroke:#333333;stroke-width:4.21448183;stroke-linecap:round;stroke-linejoin:round;stroke-miterlimit:4;stroke-dasharray:none;stroke-dashoffset:6.5999999;stroke-opacity:1"/></clipPath><clipPath clipPathUnits="userSpaceOnUse" id="clipPath6174"><ellipse cx="128.2972" cy="1416.0679" id="ellipse6176" rx="55.76445" ry="55.766594" style="display:inline;opacity:0.572;fill:#ff9696;fill-opacity:1;fill-rule:evenodd;stroke:#333333;stroke-width:4.21448183;stroke-linecap:round;stroke-linejoin:round;stroke-miterlimit:4;stroke-dasharray:none;stroke-dashoffset:6.5999999;stroke-opacity:1"/></clipPath><clipPath clipPathUnits="userSpaceOnUse" id="clipPath5292"><ellipse cx="554.68481" cy="1234.8002" id="ellipse5294" rx="46.906162" ry="46.90797" style="display:inline;opacity:0.469;fill:#ffaaaa;fill-rule:evenodd;stroke:#333333;stroke-width:3.5625;stroke-linecap:round;stroke-linejoin:round;stroke-miterlimit:4;stroke-dasharray:none;stroke-dashoffset:6.5999999;stroke-opacity:1"/></clipPath><clipPath clipPathUnits="userSpaceOnUse" id="clipPath6537"><ellipse cx="2254.0229" cy="1364.222" id="ellipse6539" rx="114.45508" ry="114.4127" style="display:inline;fill:#d9ed88;fill-opacity:0.6;fill-rule:evenodd;stroke:#333333;stroke-width:9.00000095;stroke-linecap:round;stroke-linejoin:round;stroke-miterlimit:4;stroke-dasharray:none;stroke-dashoffset:6.5999999;stroke-opacity:1"/></clipPath></defs><g id="layer1" transform="translate(0,-263.13332)"><g id="g6559" transform="matrix(0.13181407,0,0,0.13181407,-145.06663,111.82016)"><ellipse cx="1231.2837" cy="1386.9758" id="ellipse6309" rx="113.30843" ry="16.466637" style="opacity:0.694;fill:#808080;fill-rule:evenodd;stroke:none;stroke-width:1px;stroke-linecap:butt;stroke-linejoin:miter;stroke-opacity:1"/><ellipse cx="1229.0035" cy="1272.9319" id="ellipse6311" rx="119.08465" ry="119.08923" style="display:inline;fill:#d9ed88;fill-opacity:1;fill-rule:evenodd;stroke:#333333;stroke-width:9.00000095;stroke-linecap:round;stroke-linejoin:round;stroke-miterlimit:4;stroke-dasharray:none;stroke-dashoffset:6.5999999;stroke-opacity:1"/><path d="m 1331.2594,1262.0341 c 3.5285,12.9123 1.4658,23.5927 -1.3029,34.3704" id="path6325" style="opacity:1;fill:none;fill-opacity:0;fill-rule:evenodd;stroke:#ffffff;stroke-width:6;stroke-linecap:round;stroke-linejoin:round;stroke-miterlimit:4;stroke-dasharray:none;stroke-dashoffset:0;stroke-opacity:1"/><ellipse cx="1440.6578" cy="1115.6759" id="ellipse6327" rx="3.5930665" ry="3.5932045" style="fill:#ffffff;fill-opacity:1;fill-rule:evenodd;stroke:#ffffff;stroke-width:1px;stroke-linecap:butt;stroke-linejoin:miter;stroke-opacity:1" transform="rotate(5.4689903)"/><path d="m 1130.8078,1230.0883 c -0.6638,-0.4172 1.37,-6.26 7.803,-14.8748 6.3287,-8.4751 17.3012,-19.872 33.7528,-28.3875 15.4683,-7.9752 34.7025,-12.959 56.0242,-12.3963 0.2631,0.01 0.5259,0.015 0.7885,0.023 21.7815,0.7019 41.1403,6.8913 56.5256,15.1465 15.7633,8.4484 26.5984,18.685 33.1932,26.6181 6.6089,7.9501 8.9647,13.4053 8.3224,13.8707 -0.8426,0.6105 -4.6098,-3.7848 -11.9684,-10.3651 -7.395,-6.613 -18.3349,-15.241 -33.4507,-22.4015 -14.7495,-6.9786 -32.8303,-12.2432 -52.9401,-12.874 -0.2423,-0.01 -0.4849,-0.014 -0.7277,-0.02 -19.6644,-0.4914 -37.3821,3.5981 -51.9299,10.2648 -15.4215,7.033 -26.5576,16.7521 -33.6909,23.8844 -7.2343,7.2333 -10.7878,12.0863 -11.702,11.5117 z" id="path6329" style="opacity:1;fill:#ffffff;fill-opacity:1;fill-rule:evenodd;stroke:none;stroke-width:20;stroke-linecap:round;stroke-linejoin:round;stroke-miterlimit:4;stroke-dasharray:none;stroke-dashoffset:0;stroke-opacity:1"/><g clip-path="url(#clipPath6537)" id="g6371" transform="matrix(1.0191703,0,0,1.0408742,-1068.4512,-151.10579)"><path d="m 2150.7629,1413.3005 -21.6708,21.5435 a 176.67842,175.64613 0 0 0 249.8617,0 l -21.5899,-21.4642 a 149.82319,148.77891 0 0 1 -10.2093,8.9067 149.82319,148.77891 0 0 1 -12.1814,8.6509 149.82319,148.77891 0 0 1 -12.991,7.3997 149.82319,148.77891 0 0 1 -13.67,6.0749 149.82319,148.77891 0 0 1 -14.2112,4.6899 149.82319,148.77891 0 0 1 -14.6126,3.2561 149.82319,148.77891 0 0 1 -14.8672,1.7926 149.82319,148.77891 0 0 1 -10.5988,0.3729 149.82319,148.77891 0 0 1 -14.957,-0.7437 149.82319,148.77891 0 0 1 -14.8073,-2.2219 149.82319,148.77891 0 0 1 -14.5107,-3.6796 149.82319,148.77891 0 0 1 -14.0684,-5.0993 149.82319,148.77891 0 0 1 -13.4853,-6.4686 149.82319,148.77891 0 0 1 -12.7674,-7.7734 149.82319,148.77891 0 0 1 -11.9218,-8.9999 149.82319,148.77891 0 0 1 -6.7416,-6.2366 z" id="path6269" style="fill:#abc837;fill-rule:evenodd;stroke:#333333;stroke-width:8.73816013;stroke-linecap:round;stroke-linejoin:round;stroke-miterlimit:4;stroke-dasharray:none;stroke-opacity:1"/><path d="m 2155.6208,1414.2505 -20.8324,20.4568 c 23.5008,21.8849 50.1823,35.3243 76.5602,41.8726 15.0511,-5.8112 27.1142,-13.1059 39.5126,-23.3408 -3.7576,-0.04 -6.6075,-0.2243 -10.3504,-0.5524 -4.7779,-0.4703 -9.5288,-1.1746 -14.235,-2.1103 -4.7067,-0.9358 -9.3628,-2.1019 -13.9508,-3.4939 -4.5873,-1.3921 -9.1008,-3.0082 -13.5235,-4.8425 -4.4231,-1.834 -8.7499,-3.8838 -12.9642,-6.1418 -4.2146,-2.2579 -8.3114,-4.7211 -12.2751,-7.3804 -3.9626,-2.6594 -7.7872,-5.5115 -11.4594,-8.5456 -2.2221,-1.9083 -4.3837,-3.8831 -6.482,-5.9217 z" id="path6352" style="opacity:1;fill:#92ab2e;fill-opacity:1;fill-rule:evenodd;stroke:none;stroke-width:9;stroke-linecap:round;stroke-linejoin:round;stroke-miterlimit:4;stroke-dasharray:none;stroke-dashoffset:0;stroke-opacity:1"/><path d="m 2150.7629,1413.3005 a 149.82319,148.77891 0 0 0 6.7416,6.2366 149.82319,148.77891 0 0 0 11.9218,8.9999 149.82319,148.77891 0 0 0 12.7674,7.7734 149.82319,148.77891 0 0 0 13.4853,6.4686 149.82319,148.77891 0 0 0 14.0684,5.0993 149.82319,148.77891 0 0 0 14.5107,3.6796 149.82319,148.77891 0 0 0 14.8073,2.2219 149.82319,148.77891 0 0 0 14.957,0.7437 149.82319,148.77891 0 0 0 10.5988,-0.3729 149.82319,148.77891 0 0 0 14.8672,-1.7926 149.82319,148.77891 0 0 0 14.6126,-3.2561 149.82319,148.77891 0 0 0 14.2112,-4.6899 149.82319,148.77891 0 0 0 13.67,-6.0749 149.82319,148.77891 0 0 0 12.991,-7.3997 149.82319,148.77891 0 0 0 12.1814,-8.6509 149.82319,148.77891 0 0 0 10.2093,-8.9067 l -103.3415,-102.7372 z" id="path6229" style="fill:#ff7373;fill-opacity:1;fill-rule:evenodd;stroke:#333333;stroke-width:8.57493591;stroke-linecap:round;stroke-linejoin:round;stroke-miterlimit:4;stroke-dasharray:none;stroke-opacity:1"/><path d="m 2253.9549,1316.7767 -98.3341,97.4738 c 39.4362,27.706 63.5824,35.3869 98.3074,35.812 32.4263,-27.0226 46.5897,-65.3843 16.7503,-116.7084 z" id="path6354" style="opacity:1;fill:#f46161;fill-opacity:1;fill-rule:evenodd;stroke:none;stroke-width:9;stroke-linecap:round;stroke-linejoin:round;stroke-miterlimit:4;stroke-dasharray:none;stroke-dashoffset:0;stroke-opacity:1"/><g id="g6283" transform="matrix(0.51664876,0,0,0.51304378,1201.5079,653.29912)"><path d="m 1930.4572,1462.0429 c -10.3479,11.2973 -20.0702,47.6603 0.9275,47.7693 19.4757,0.1015 9.3726,-38.2915 -0.9275,-47.7693 z" id="path6271" style="fill:#333333;fill-rule:evenodd;stroke:none;stroke-width:0.98948759px;stroke-linecap:butt;stroke-linejoin:miter;stroke-opacity:1"/><path d="m 2035.7956,1443.4537 c -10.3479,11.2973 -20.0702,47.6603 0.9275,47.7693 19.4757,0.1015 9.3726,-38.2915 -0.9275,-47.7693 z" id="path6273" style="fill:#333333;fill-rule:evenodd;stroke:none;stroke-width:0.98948759px;stroke-linecap:butt;stroke-linejoin:miter;stroke-opacity:1"/><path d="m 2143.6126,1465.7608 c -10.3479,11.2973 -20.0702,47.6603 0.9275,47.7693 19.4757,0.1015 9.3726,-38.2915 -0.9275,-47.7693 z" id="path6275" style="fill:#333333;fill-rule:evenodd;stroke:none;stroke-width:0.98948759px;stroke-linecap:butt;stroke-linejoin:miter;stroke-opacity:1"/><path d="m 1970.114,1389.5448 c -10.3479,11.2973 -20.0702,47.6603 0.9275,47.7693 19.4757,0.1015 9.3726,-38.2915 -0.9275,-47.7693 z" id="path6277" style="fill:#333333;fill-rule:evenodd;stroke:none;stroke-width:0.98948759px;stroke-linecap:butt;stroke-linejoin:miter;stroke-opacity:1"/><path d="m 2107.6736,1385.2073 c -10.3479,11.2973 -20.0702,47.6603 0.9275,47.7693 19.4757,0.1015 9.3726,-38.2915 -0.9275,-47.7693 z" id="path6279" style="fill:#333333;fill-rule:evenodd;stroke:none;stroke-width:0.98948759px;stroke-linecap:butt;stroke-linejoin:miter;stroke-opacity:1"/><path d="m 2041.992,1329.4395 c -10.3479,11.2973 -20.0702,47.6603 0.9275,47.7693 19.4757,0.1015 9.3726,-38.2915 -0.9275,-47.7693 z" id="path6281" style="fill:#333333;fill-rule:evenodd;stroke:none;stroke-width:0.98948759px;stroke-linecap:butt;stroke-linejoin:miter;stroke-opacity:1"/></g></g><path d="m 1294.4789,1301.8702 c 6.1063,7.0801 18.7939,21.2003 18.7939,21.2003" id="path5358-9" style="opacity:1;fill:none;fill-opacity:1;fill-rule:evenodd;stroke:#ffffff;stroke-width:6;stroke-linecap:round;stroke-linejoin:round;stroke-miterlimit:4;stroke-dasharray:none;stroke-dashoffset:0;stroke-opacity:1"/><ellipse cx="1341.3822" cy="1237.2749" id="ellipse5360-2" rx="3.4961362" ry="3.4962704" style="fill:#ffffff;fill-opacity:1;fill-rule:evenodd;stroke:#ffffff;stroke-width:1px;stroke-linecap:butt;stroke-linejoin:miter;stroke-opacity:1" transform="rotate(2.4705723)"/></g></g></svg>