<?xml version="1.0" ?><svg viewBox="0 0 200 200" xmlns="http://www.w3.org/2000/svg"><title/><path d="M125.662,169.213c-1.7-.672-1.528-3.877-3.691-4.912-4.264-2.043-7.886-.631-12.035.632.5-6.734,1.143-15.519,1.631-22.155a3.288,3.288,0,0,0,1.493-.592c1.382-1.609.889-29.167.863-31.382a3.851,3.851,0,0,0,.494-1.057c.064.777.181,2.1.912,2.16,1.046.093,1.406-.845,1.565-1.882a4.341,4.341,0,0,0,.568,1.768c.437.547,1.131.366,1.52-.213.943-1.4.751-5.745.625-7.413A137.64,137.64,0,0,0,121.8,77.156c.813-.055,1.54-.118,2.1-.2.4-.059,1.128-.159,1.324-.5.9-1.541-.314-17.69-3.666-25.236-2.374-5.338-8.79-9.491-14.337-11.234a13.186,13.186,0,0,1-.085-1.438c1.426-.212,2.224.032,3.912-1.179,3.784-2.72,4.772-7.334,5.652-11.93a1.778,1.778,0,0,0,1.708.236c.413-.1,1.316-.289,1.5-.719a1.886,1.886,0,0,0,.212.021,2.4,2.4,0,0,0,1.741-.66,1.619,1.619,0,0,0,0-2.241,1.412,1.412,0,0,0,.744-1.038,1.5,1.5,0,0,0-.51-1.435c-.27-.206-.625-.326-.735-.453a2.376,2.376,0,0,0,.5-2.128,1.483,1.483,0,0,0-.913-.834c.341-.632.045-1.777-1.239-2.326a1.876,1.876,0,0,0-1.181-.211,1.736,1.736,0,0,0-1.257-1.851,3.154,3.154,0,0,0-1.288-.145A2.025,2.025,0,0,0,115.2,10.4a2.8,2.8,0,0,0-1.751-.819,2.211,2.211,0,0,0-1.343.195c-.259-.071-.5-.438-.81-.695-.895-.733-1.7-.015-2.253.077-.28.047-.668-.3-1.015-.456a3.4,3.4,0,0,0-1.617-.128,1.9,1.9,0,0,0-1.695,1.274c-.061-.011-.575-.018-.635-.017-1.162,0-2.778,1.125-2.636,2.222a2.934,2.934,0,0,0-1.262.268c-.652.327-1.049.416-1.047,1.147a4.976,4.976,0,0,0-1.192.116c-1.82.383-2.834,1.957-2.577,2.779a1.674,1.674,0,0,0-.8.217A2.611,2.611,0,0,0,93.3,19.105c0,.062.08.509.119.758A3.455,3.455,0,0,0,92.53,21c-.727,1.778.407,4.063.987,4.316a1.6,1.6,0,0,0-.318,1.246c.1,1.021.835,1.3,1.394,1.793a3.736,3.736,0,0,0-.171.419,1.654,1.654,0,0,0,.111.837,1.023,1.023,0,0,0,1.173.6,1.652,1.652,0,0,0,.687-.22.653.653,0,0,0,.05.1,1.877,1.877,0,0,0,.888.437c-.762,1.55-3.9,7.207-4.31,8.066a28.967,28.967,0,0,0-14.808,5.8,38.989,38.989,0,0,0-6.723,6.778C69.053,54.2,67.318,58.9,66.214,63.44a46.467,46.467,0,0,0-1.5,11.969,4.211,4.211,0,0,0,.2,1.145c.129.335.285.427.495.47.175.037.537.081,1.033.127a138.753,138.753,0,0,0,2.144,29.073c-.128,1.691-.316,6.013.626,7.414.4.589,1.088.752,1.519.212a4.321,4.321,0,0,0,.568-1.768c.113.733.331,1.581,1.033,1.824-.134,9.654-.03,19.423.128,24.669.119,4,.142,4.107.519,4.265a3.216,3.216,0,0,0,.568.141c.253,4.634.74,14.034,1.079,20.581a25.481,25.481,0,0,0-13.609,3.632c-7.654,4.735-17.042,12.707-10.316,18.628,7.757,6.815,17.243,3.12,25.934,4,3.329.334,8.051,3.955,12.493,4.767,11.266,2.049,49.012-3.267,51.757-17.055C142.276,170.574,129.133,170.591,125.662,169.213Zm-17.1,6.333a8.11,8.11,0,0,0,2.976,1.371,23.954,23.954,0,0,0-2.521,2.059c-.74-.137-4.822-1.048-5.514-1.187-.475-.093-2.261-.627-2.751-.772-.037-.719-2.419-22.946-3.6-33.116a101.963,101.963,0,0,0,13.991-1.038C108.237,177.5,108.3,175.315,108.561,175.546Zm3.543,4.028a14.219,14.219,0,0,1,2.33-1.815,7.225,7.225,0,0,1,2.912,1.605A18.332,18.332,0,0,1,112.1,179.574Zm-27.941,1.047a7.67,7.67,0,0,0,2.789,1.474c.2.069.236-.091-1,.8-.613.44-1.147.866-1.5,1.171-.731-.172-4.764-1.281-5.449-1.453-.472-.117-2.229-.736-2.71-.905,0-.454-1.369-24.8-2.36-38.669a146.888,146.888,0,0,0,14.964.8C83.7,182.805,83.913,180.377,84.163,180.621Zm3.343,4.2a14.14,14.14,0,0,1,2.415-1.7,7.218,7.218,0,0,1,2.831,1.744A18.373,18.373,0,0,1,87.506,184.817Zm1.765-40.981c1.154-.042,1.261-.09,1.442-.633.948-2.839,1.618-6.828,2.317-9.631.492-5.457,2.823-20.813,4.242-27.507a.152.152,0,0,1,.177-.122c.218.039.385-1.811-3.845,28.668.411,8.915.694,8.99,1.157,9.138a10.1,10.1,0,0,0,1.932.15c.452,4.449,1.507,14.925,2.3,22.847-3.922.595-8.763,1.242-12.563.238C87.394,159.163,88.555,149.672,89.271,143.836Zm29.605-39.764a39.3,39.3,0,0,1,.012,4.864c-.046.526-.267,2.4-.793,2.43-.6-.636-.611-3.763-.708-4.217a.389.389,0,0,0-.661-.225c-.741.74-.2,4.2-1.262,4.226-.489-.9-.284-3.916-.452-4.406-.045-.132-.626-.5-.747.085-.058.28-.142,1.005-.367,1.948-.056-4.481-.2-16.7-.408-20.807.963-1.121-.3-8.928.211-10.075.856-.433,4.533-.52,7.585-.706A147.228,147.228,0,0,1,118.876,104.072Zm5.818-27.953c-1.271.594-9.156.442-11.039,1.065.537-2.9.594-3.141,1.164-7.609,1.715-.166,8.255-.857,9.783-1.694C124.705,69,125.18,75.117,124.694,76.119ZM93.661,38.983c.035-.166,4.288-7.776,4.625-8.748a.5.5,0,0,0,0-.39c-.259-.516-1.93-2.179-.619-3.654a1.439,1.439,0,0,1,1.3-.447c.379.053.467.285.638.593.354.639.7.51,1.243.635.2.047.322.172.56.142.192-.024.313-.171.479-.337.237-.015.533.082.739-.052.321-.21.321-.494.161-.84-.025-.054-.054-.105-.074-.155.159-.086.406-.223.427-.241a2.276,2.276,0,0,0,.654-1,1.93,1.93,0,0,0-.083-.737c.167-.105.551-.139.69-.581a3.262,3.262,0,0,0,2.145-.824c.573,1,2.652,1.069,3.519.2a2.8,2.8,0,0,0,.841.905,2.412,2.412,0,0,0,2.045.381,2.757,2.757,0,0,0,3.234.888,1.809,1.809,0,0,0,.242.4,32.346,32.346,0,0,1-1.785,6.641,11.345,11.345,0,0,1-3.527,4.861c-1.887,1.463-2.645,1.088-4.128,1.31-.245.036-.462.117-.478.363a8.052,8.052,0,0,0,.216,2.44c-.048,1.206-2.955,5.77-4.131,5.763C99.645,46.489,93.079,41.683,93.661,38.983Zm-21.7,12.549c4.261-5.376,8.4-8.881,14.843-11.175a26.476,26.476,0,0,1,6.087-1.35c-.441,3.4,6.59,8.218,9.7,8.224,1.733,0,4.833-5.142,4.8-6.481-.006-.259-.08-.257-.124-.445,5.368,1.79,11.6,5.844,13.881,11.1a51.028,51.028,0,0,1,2.971,12.276c.025.181.193-.018-1.654.279-1.754.283-4.443.822-7.214,1.5.07-.972.1-2.07.163-3.216a.141.141,0,0,0-.281-.024c-1.35,12.06-2.06,12.527-2.208,16.475-.078,2.065.45,6.962.149,8.506-.06.308-.045.328-.363.437-3.86,1.326-32.926.563-35.634-.033-.408-1.5,1.184-8.595,1.256-9.657A91.142,91.142,0,0,0,81.677,62.3a.143.143,0,0,0-.117-.162c-.189-.03-.092-.2-1.084,4.451-2.47-.513-11.195-1.223-13.833-1.464-.136-.013-.152.106-.19.255C67.384,60.882,69.114,55.11,71.956,51.532Zm-6.3,18.689c2.925.38,11.534,1.354,13.759,1.334-.567,2.65-1.087,5.07-1.293,6-.723-.434-11.237-.936-12.55-1.193C65.105,75.448,65.531,71.254,65.656,70.221Zm5.564,38.647c-.427-.019-.429.431-.456.827-.05.743-.16,3.2-.659,3.728-.162-.01-.258-.169-.357-.37-.673-1.372-.538-5.3-.417-6.822a142.753,142.753,0,0,1-2.4-29.036c2.751.238,9.332.642,10.682.922-.2,1.508-1.568,7.7-1.272,9.466.088.525.3.642.578.71-.349,3.7-1.2,12.328-1.233,14.47-.008.567-.03.695.607,1.594.38.538,1.828,2.378,1.372,2.855-.708.737-1.852-1.388-2.587-1.289-.419.057-.392.507-.309.921.21,1.061,1.559,5.485.25,5.7-.015,0-.024-.015-.037-.025-.608-.5-1.025-3.514-1.048-3.629a.376.376,0,0,0-.505-.325c-.269.088-.28.341-.3.629-.052.888-.022,3.329-.4,4.017C71.573,113.175,72.326,108.921,71.22,108.868Zm68.952,68.52c-1.312,6.535-11.044,10.548-17.408,12.539-12.184,3.813-27.248,5.054-33.495,3.92-4.428-.8-9.005-4.408-12.554-4.758-8.674-.859-18.05,2.792-25.573-3.763-6.3-5.483,3.062-13.258,10.146-17.709a25.076,25.076,0,0,1,13.364-3.68c.439,8.465.873,16.891.892,17.386.043,1.03-.178,3.155.115,3.734.154.3.768.449,1.231.569,2.359.614,15.286,2.844,16.881,1.28a1.279,1.279,0,0,0,.219-1.337c-1.06-3.445-7.2-3.627-9.2-5.385.04-.2.733-5.815,1.6-12.863,3.831,1.041,8.659.439,12.649-.131.518,5.16.916,9.14.946,9.475.093,1.049-.026,3.162.3,3.724a.627.627,0,0,0,.322.251c1.789.747,16.355,2.341,17.858.716.677-.732-.06-2.1-.792-2.749-2.293-2.037-6.753-2.134-8.5-3.528.025-.171.323-4.144.726-9.584,4.063-1.2,7.681-2.641,11.8-.629,1.439.7,1.675,2.774,2.609,4.059.8,1.1,1.575,1.175,6.267,2.05C134.926,171.788,141.038,173.078,140.172,177.388Z"/><path d="M80.052,170.37c-.015.16-.056.858-.074,1.153a3.616,3.616,0,0,0,.772,0c.015-.241.055-.918.07-1.078A.386.386,0,1,0,80.052,170.37Z"/><path d="M104.359,165.139a.427.427,0,0,0-.4.367c-.008.175-.015.969-.017,1.153a.386.386,0,0,0,.771.006c0-.178.009-.954.016-1.123A.386.386,0,0,0,104.359,165.139Z"/><path d="M80.561,164.068c.048-.738.06-1.018.072-1.129a.386.386,0,1,0-.768-.073c-.01.118-.072,1.147-.072,1.147A.385.385,0,0,0,80.561,164.068Z"/><path d="M104.178,158.06a.388.388,0,0,0-.366-.407.417.417,0,0,0-.405.365c-.007.165-.015.892-.016,1.16a5.092,5.092,0,0,0,.77-.032C104.163,158.921,104.169,158.219,104.178,158.06Z"/><path d="M82.514,174.96c-.03.311-.072.828-.114,1.033a.386.386,0,0,0,.756.156c.048-.237.083-.68.126-1.111A.386.386,0,1,0,82.514,174.96Z"/><path d="M107.337,171.132c.04-.251.052-.724.074-1.117a.386.386,0,0,0-.365-.406.425.425,0,0,0-.406.364c-.018.369-.031.831-.064,1.032A.386.386,0,0,0,107.337,171.132Z"/><path d="M84.274,168.245c.048-.241.087-.716.126-1.113.046-.47-.712-.645-.768-.079-.031.312-.071.83-.114,1.036A.386.386,0,0,0,84.274,168.245Z"/><path d="M108.07,163.176c.038-.24.055-.741.072-1.113a.387.387,0,0,0-.366-.406.438.438,0,0,0-.4.364c-.02.42-.032.833-.063,1.035A.385.385,0,0,0,108.07,163.176Z"/><path d="M85.262,159.992c.049-.237.084-.681.127-1.111a.386.386,0,1,0-.768-.078c-.031.31-.072.828-.114,1.033A.385.385,0,0,0,85.262,159.992Z"/><path d="M107.959,153.732c-.018.372-.031.833-.064,1.038a.386.386,0,0,0,.762.12c.038-.248.056-.77.072-1.116a.389.389,0,0,0-.365-.407A.4.4,0,0,0,107.959,153.732Z"/><path d="M81.656,155.567a.385.385,0,0,0-.77.007c.005.4.019.843,0,1.041a.385.385,0,0,0,.767.072C81.678,156.432,81.66,155.884,81.656,155.567Z"/><path d="M104.842,150.643a.386.386,0,0,0-.771.042c.028.453.062.837.051,1.039a.386.386,0,0,0,.771.036C104.9,151.52,104.87,151.091,104.842,150.643Z"/><path d="M85.271,152.57c.023-.247.008-.728,0-1.12a.385.385,0,0,0-.77.006c0,.473.018.844,0,1.041A.385.385,0,0,0,85.271,152.57Z"/><path d="M107.536,147.441a.385.385,0,0,0,.77.03c.009-.245-.023-.657-.051-1.114a.4.4,0,0,0-.406-.364.386.386,0,0,0-.365.406C107.507,146.758,107.544,147.224,107.536,147.441Z"/><path d="M106.736,27.638c.819.01,1.342-.468,1.273-.63s-1.188-.132-1.288-.132a4.251,4.251,0,0,0-1.231.06C105.394,27.1,105.887,27.629,106.736,27.638Z"/><path d="M108.728,32.1a2.715,2.715,0,0,0,1.644.059c.489-.159.551-1.25.575-1.768a8.683,8.683,0,0,0-.121-2.071c-.01-.075-.016-.233-.023-.265-.034-.146-.252-.188-.319.053a14.116,14.116,0,0,0-.262,1.874,5.341,5.341,0,0,1-.237,1.563,3.353,3.353,0,0,1-1.2.257A.152.152,0,0,0,108.728,32.1Z"/><path d="M113.571,29.351c.575.28,1.182.093,1.194-.076.015-.223-1.65-1.057-1.805-.965C112.785,28.415,112.955,29.053,113.571,29.351Z"/><path d="M107.111,34.6c.034.152.175.111,1.16.221,1.323.147,1.351.616,1.555.495s-.181-.676-.39-.841C108.6,33.809,107.039,34.281,107.111,34.6Z"/><path d="M54.824,17.67c2.47.273,5.778-.7,8.068-1.641a8.191,8.191,0,0,0,7.458,4.854c4.057.09,6.247-1.437,9.016-4.273a6.758,6.758,0,0,0,3.314,1.8,5.76,5.76,0,0,0,3.949-.8.152.152,0,0,0-.146-.266,5.406,5.406,0,0,1-3.716.628c-2.524-.539-3.094-2.473-3.648-1.935a16.113,16.113,0,0,1-3.945,3.1,9.263,9.263,0,0,1-9-.311,7.662,7.662,0,0,1-2.725-3.414.378.378,0,0,0-.512-.223c-2.141.964-5.676,2.026-8.044,1.787-5.46-.512-7.971-3.884-7.327-8.611a.154.154,0,0,0-.3-.046C46.428,13.2,48.922,16.974,54.824,17.67Z"/><path d="M129.414,16.77a9.951,9.951,0,0,0,10.316.223,10.861,10.861,0,0,0,3.448-3.77c2.078,2.192,4.2,3.758,7.164,3.174,3.852-.761,4.521-4.869,5.284-5.528,3.217,1.723,6.7,2.3,9.475-.121.9-.786,1.84-4.465,1.825-5.389-.009-.606-.532-.31-.33-.1.286-.2-.911,4.36-1.822,5.1-2.491,2.047-5.659,1.573-8.5.026-.4-.215-.664-.457-1.11-.087-.679.561-1.08,2.43-2.417,3.891a4.922,4.922,0,0,1-5.574,1.166,11.415,11.415,0,0,1-3.741-2.954.375.375,0,0,0-.29-.125c-.282,0-.415.267-.62.608-1.893,3.151-4.435,5.009-8.194,4.839-2.923-.117-5.676-1.077-6.554-3.857a.154.154,0,0,0-.3.088A5.152,5.152,0,0,0,129.414,16.77Z"/><path d="M166.6,5.258a.072.072,0,0,0,.032.025A.221.221,0,0,1,166.6,5.258Z"/><path d="M26.025,27.564c1.646,2.781,3.181,4.016,7.611,4.047,2.878.015,5.191-1.136,6.1-3.831,2.483,3.029,9.654,2.007,9.575-2.37a.152.152,0,0,0-.3,0c-.076,4.221-7.5,4.645-9.063,1.433a.333.333,0,0,0-.319-.2c-.321,0-.368.3-.46.611-.775,2.574-2.838,3.626-5.526,3.6-4.249-.033-5.516-1.178-7.088-3.866-.2-.351-.677-.165-1.117-.046-1.232.336-3.916,1.113-6.126.251a4.844,4.844,0,0,1-2.861-3.276c-.52-1.591.808-5.822,2.281-6.844a.154.154,0,0,0-.171-.255c-1.627,1.043-3.2,5.406-2.658,7.268a5.412,5.412,0,0,0,3.153,3.745C21.49,28.825,24.234,27.969,26.025,27.564Z"/><path d="M184.01,28.451a9.6,9.6,0,0,1-4.792.082,8.3,8.3,0,0,1-4.066-2.334.349.349,0,0,0-.488-.036c-1.348,1.139-4.239,3.138-6.011,3.25a9.579,9.579,0,0,1-4.046-.572,8.1,8.1,0,0,1-3.335-2.266.367.367,0,0,0-.568-.02c-2.907,3.345-9.138,3.885-12.1,1.2a.154.154,0,0,0-.211.224c2.9,2.861,9.188,2.792,12.578-.63a9.692,9.692,0,0,0,7.733,2.829c1.96-.133,4.647-2.031,6.166-3.275a9.288,9.288,0,0,0,9.224,1.845A.152.152,0,0,0,184.01,28.451Z"/><path d="M61.247,26.523a7.714,7.714,0,0,0-.968,2.141,7.646,7.646,0,0,0-.435,2.306.151.151,0,0,0,.292.08c.074-.15.364-.715.486-1.019a19.286,19.286,0,0,0,.822-2.844c.035-.189.059-.369.092-.557A.154.154,0,0,0,61.247,26.523Z"/><path d="M137.686,40.891a19.236,19.236,0,0,0,.822-2.844c.034-.189.059-.37.091-.557a.154.154,0,0,0-.288-.108,9.245,9.245,0,0,0-1.167,2.815,7.631,7.631,0,0,0-.237,1.632.152.152,0,0,0,.293.08C137.259,41.788,137.563,41.2,137.686,40.891Z"/><path d="M150.848,55.305a14.441,14.441,0,0,0,1.2-3.314c.084-.355.17-.936.2-1.106a.154.154,0,0,0-.289-.108,7.748,7.748,0,0,0-.968,2.142,7.666,7.666,0,0,0-.435,2.3A.152.152,0,0,0,150.848,55.305Z"/><path d="M134.637,89.308a9.277,9.277,0,0,0-1.167,2.815,7.672,7.672,0,0,0-.237,1.632.152.152,0,0,0,.293.081,9.007,9.007,0,0,0,.732-1.718,13.192,13.192,0,0,0,.668-2.7A.154.154,0,0,0,134.637,89.308Z"/><path d="M136.976,62.783a9.876,9.876,0,0,0-1.4,4.448.152.152,0,0,0,.293.08c.069-.141.362-.713.486-1.019a19.223,19.223,0,0,0,.822-2.844c.034-.189.059-.369.091-.557A.154.154,0,0,0,136.976,62.783Z"/><path d="M167.278,42.693a9.277,9.277,0,0,0-1.167,2.815,7.66,7.66,0,0,0-.237,1.632.152.152,0,0,0,.293.08A8.97,8.97,0,0,0,166.9,45.5a13.2,13.2,0,0,0,.668-2.7A.154.154,0,0,0,167.278,42.693Z"/><path d="M156.419,79.178a11.121,11.121,0,0,0,1.024-2.671,10.428,10.428,0,0,0,.375-1.749.154.154,0,0,0-.288-.107,6.963,6.963,0,0,0-.782,1.586,8.87,8.87,0,0,0-.622,2.861A.152.152,0,0,0,156.419,79.178Z"/><path d="M147.432,107.667a9.867,9.867,0,0,0-1.4,4.447.152.152,0,0,0,.293.08c.079-.161.364-.715.486-1.018a19.137,19.137,0,0,0,.822-2.844c.034-.189.059-.37.091-.557A.154.154,0,0,0,147.432,107.667Z"/><path d="M170.715,94.068a9.254,9.254,0,0,0-1.167,2.815,7.618,7.618,0,0,0-.237,1.632.152.152,0,0,0,.293.08,9.019,9.019,0,0,0,.731-1.717,13.125,13.125,0,0,0,.668-2.7A.154.154,0,0,0,170.715,94.068Z"/><path d="M53.158,57.536a9.867,9.867,0,0,0-1.4,4.447.152.152,0,0,0,.293.08c.076-.155.364-.714.486-1.018a19.2,19.2,0,0,0,.822-2.844c.034-.19.059-.37.091-.558A.154.154,0,0,0,53.158,57.536Z"/><path d="M34.934,58.186a9.9,9.9,0,0,0-1.4,4.447.152.152,0,0,0,.293.08c.078-.157.362-.71.486-1.019a18.959,18.959,0,0,0,.822-2.844c.035-.189.059-.369.092-.557A.154.154,0,0,0,34.934,58.186Z"/><path d="M39.8,77.567a9.876,9.876,0,0,0-1.4,4.448.152.152,0,0,0,.293.08c.077-.158.364-.715.486-1.019A19.079,19.079,0,0,0,40,78.232c.034-.189.059-.369.091-.557A.154.154,0,0,0,39.8,77.567Z"/><path d="M56.367,89.4a9.876,9.876,0,0,0-1.4,4.448.152.152,0,0,0,.293.08c.059-.122.363-.713.486-1.019a19.524,19.524,0,0,0,.822-2.844c.034-.189.059-.37.091-.557A.154.154,0,0,0,56.367,89.4Z"/><path d="M43.128,104.932a9.882,9.882,0,0,0-1.4,4.447.151.151,0,0,0,.292.08c.062-.125.363-.711.486-1.018a19.091,19.091,0,0,0,.822-2.844c.035-.189.059-.37.092-.558A.154.154,0,0,0,43.128,104.932Z"/><path d="M21.452,103.587a11.264,11.264,0,0,0,1.024-2.671,10.414,10.414,0,0,0,.375-1.749.154.154,0,0,0-.288-.107,7.012,7.012,0,0,0-.782,1.586,8.894,8.894,0,0,0-.622,2.861A.152.152,0,0,0,21.452,103.587Z"/><path d="M47.54,39.984a7.694,7.694,0,0,0-.969,2.141,7.681,7.681,0,0,0-.435,2.306.152.152,0,0,0,.293.08c.068-.139.363-.714.486-1.018a19.236,19.236,0,0,0,.822-2.844c.034-.19.059-.37.091-.558A.154.154,0,0,0,47.54,39.984Z"/><path d="M67.445,40.531a7.708,7.708,0,0,0-.969,2.141,7.674,7.674,0,0,0-.435,2.306.152.152,0,0,0,.293.08c.061-.124.363-.712.486-1.018a19.176,19.176,0,0,0,.822-2.844c.034-.19.059-.37.091-.558A.154.154,0,0,0,67.445,40.531Z"/><path d="M55.512,154.575a3,3,0,0,0,.739-1.555c.308-1.293.494-3.516.629-3.41l0,.016c3.1-1.05,8.706-1.7,7.3-5.024-1.926-4.558-27.034-1.972-31.995-1.371-3.97.49-6.132-.046-9.356,2.579-.684.556-1.982,2.931-1.426,3.936,2.827,5.121,14.091,1.246,16.256,1.88,3.382.989,2.231,3.574,5.349,4.348C47.482,157.068,51.932,157.483,55.512,154.575Zm-12.33.7c-2.7-.681-1.586-3.266-5.315-4.366-2.4-.708-13.288,3.019-15.8-1.528-.3-.537.711-2.553,1.238-2.984,3.029-2.478,5.061-1.946,8.969-2.441,4.429-.567,29.867-3.385,31.621.767a1.765,1.765,0,0,1-.771,2.343c-1.8,1.24-6.319,1.834-6.636,2.258-.416.549-.533,4.18-1.329,4.809C51.726,156.834,47.431,156.358,43.182,155.273Z"/><path d="M56.876,149.626l-.051.018A.309.309,0,0,0,56.876,149.626Z"/><path d="M155.521,157.151a15.636,15.636,0,0,0,2.667-1.705,1.463,1.463,0,0,0-.141-2.464,20.2,20.2,0,0,0-7.463-2.158c-4.252-.306-12.571,1.286-16.969,4.023-4.153,2.586-4.816,5.893-.953,9.842,2.522,2.578,7.331-.352,10.535-.548,3.72-.232,18.536,3.8,20.447-1.908C164.93,158.385,156.949,158.278,155.521,157.151Zm7.408,4.843c-1.62,4.879-16.069,1.322-19.77,1.62-3.11.254-7.973,3.22-10.28.863-3.4-3.471-3.187-6.648,1.019-9.167,4.222-2.527,12.559-4.076,16.631-3.756,2.917.224,7.145,1.7,7.429,2.354.5,1.138-2.2,2.085-2.924,2.714-.348.3-.432.7-.131,1C156.3,159.018,163.905,159.056,162.929,161.994Zm-7.461-4.728c-.034-.022-.023-.044.013-.076C155.482,157.213,155.493,157.284,155.468,157.266Z"/><path d="M146.141,155.292a16.862,16.862,0,0,0-6.706,3.745.154.154,0,0,0,.188.243c.014-.008,5-2.744,5.451-3.008.427-.253.816-.5,1.183-.7A.152.152,0,0,0,146.141,155.292Z"/><path d="M47.031,145.224a16.876,16.876,0,0,0-6.706,3.745.154.154,0,0,0,.188.244c.015-.01,5.005-2.745,5.451-3.009.427-.252.817-.5,1.183-.7A.152.152,0,0,0,47.031,145.224Z"/><path d="M151.6,156.5a6.824,6.824,0,0,0-2.678.924,7.538,7.538,0,0,0-2.243,1.721.154.154,0,0,0,.194.238c.1-.06,4.71-2.544,4.811-2.591A.152.152,0,0,0,151.6,156.5Z"/><path d="M52.493,146.432a8.67,8.67,0,0,0-4.921,2.644.154.154,0,0,0,.2.238c.1-.06,4.71-2.544,4.81-2.59A.152.152,0,0,0,52.493,146.432Z"/><path d="M91.684,75.155a7.562,7.562,0,0,1,5.55-4.828c2.118-.376,5.779-.22,7.308,1.366a6.348,6.348,0,0,1,1.508,3.784.426.426,0,1,0,.852-.036,7.158,7.158,0,0,0-1.746-4.34c-1.849-1.918-5.934-2-8.075-1.611a8.372,8.372,0,0,0-6.229,5.478A3.128,3.128,0,0,1,91.684,75.155Z"/><path d="M93.61,64.512c.561-.215.562-1,.565-1.514.011-.718.145-2.773-.423-3.344-.313-.317-1.087-.285-1.4.545a5.846,5.846,0,0,0,.02,3.647A1.057,1.057,0,0,0,93.61,64.512Z"/><path d="M104.7,64.536c.749,0,.832-.834.837-1.565a10.624,10.624,0,0,0-.067-2.312,1.5,1.5,0,0,0-.356-1.029c-.316-.32-1.089-.281-1.4.545a5.849,5.849,0,0,0,.02,3.648A1.225,1.225,0,0,0,104.7,64.536Z"/></svg>